<?xml version="1.0" encoding="utf-8" ?>	<!-- Generator: Assembly 2.2 - http://assemblyapp.co -->	<svg version="1.1" xmlns="http://www.w3.org/2000/svg" xmlns:xlink="http://www.w3.org/1999/xlink" width="2048.00" height="1365.33" viewBox="0 0 2048.0 1365.3333333333335">		<g id="document" transform="matrix(1,0,0,1,1024.0,682.6666666666667)">			<defs>				<filter id="o7VEBs1w" x="-1.51%" y="0.00%" width="101.51%" height="102.89%" filterUnits="objectBoundingBox">					<feOffset dx="-28.36" dy="28.36" in="SourceAlpha" result="shadowOffsetOuter1" />					<feGaussianBlur stdDeviation="0.00" in="shadowOffsetOuter1" result="shadowBlurOuter1" />					<feFlood flood-color="#ff7502" flood-opacity="0.65" />					<feComposite in2="shadowBlurOuter1" operator="in" />					<feMerge>						<feMergeNode />						<feMergeNode in="SourceGraphic" />					</feMerge>				</filter>			</defs>			<path d="M-941.81,-489.847 C-941.81,-271.842 -941.81,-81.3089 -941.81,81.752 C-941.81,244.813 -941.81,380.845 -941.81,489.847 C-843.441,489.847 -778.306,489.847 -746.402,489.847 C-746.402,367.552 -746.402,286.021 -746.402,245.256 C-746.402,-122.517 -746.402,-367.552 -746.402,-489.847 C-843.884,-489.847 -909.02,-489.847 -941.81,-489.847 Z M37.8851,-392.808 C37.8851,-419.394 28.58,-442.436 9.96976,-461.932 C-9.52665,-480.542 -32.5679,-489.847 -59.1539,-489.847 C-233.735,-489.847 -364.45,-489.847 -451.298,-489.847 C-478.77,-489.847 -501.811,-480.542 -520.421,-461.932 C-539.918,-442.436 -549.666,-419.394 -549.666,-392.808 C-549.666,-283.806 -549.666,-188.096 -549.666,-105.679 C-549.666,-25.0352 -549.666,42.3161 -549.666,96.3743 C-549.666,227.532 -549.666,325.9 -549.666,391.479 C-549.666,418.951 -539.918,441.992 -520.421,460.603 C-501.811,480.099 -478.77,489.847 -451.298,489.847 C-277.602,489.847 -146.888,489.847 -59.1539,489.847 C-32.5679,489.847 -9.52665,480.099 9.96976,460.603 C28.58,441.992 37.8851,418.951 37.8851,391.479 C37.8851,43.2023 37.8851,-218.227 37.8851,-392.808 Z M-354.259,294.44 C-354.259,163.282 -354.259,64.9142 -354.259,-0.66465 C-354.259,-130.936 -354.259,-228.861 -354.259,-294.44 C-266.525,-294.44 -200.946,-294.44 -157.522,-294.44 C-157.522,-49.8488 -157.522,133.595 -157.522,255.89 C-157.522,272.728 -157.522,285.578 -157.522,294.44 C-244.37,294.44 -309.949,294.44 -354.259,294.44 Z M685.254,-0.66465 C727.792,-82.1951 813.31,-245.256 941.81,-489.847 C905.475,-489.847 832.364,-489.847 722.475,-489.847 C697.661,-436.675 648.477,-330.774 574.923,-172.144 C550.109,-225.316 500.925,-331.217 427.37,-489.847 C391.036,-489.847 317.924,-489.847 208.036,-489.847 C250.573,-408.317 336.092,-245.256 464.591,-0.66465 C464.591,-0.66465 464.591,-0.66465 464.591,-0.66465 C407.874,108.338 322.355,271.842 208.036,489.847 C256.777,489.847 329.888,489.847 427.37,489.847 C460.16,418.951 509.344,312.607 574.923,170.815 C607.712,241.711 656.896,348.055 722.475,489.847 C771.216,489.847 844.327,489.847 941.81,489.847 C885.093,380.845 799.574,217.341 685.254,-0.66465 C685.254,-0.66465 685.254,-0.66465 685.254,-0.66465 Z " fill="#c06c84" fill-opacity="1.00" filter="url(#o7VEBs1w)" />		</g>	</svg>